<svg id="eOFNxcCfuS11" xmlns="http://www.w3.org/2000/svg" xmlns:xlink="http://www.w3.org/1999/xlink" viewBox="0 0 561.550781 540.160278" shape-rendering="geometricPrecision" text-rendering="geometricPrecision"><rect id="eOFNxcCfuS12" width="561.551" height="540.16" rx="0" ry="0" fill="rgb(255,255,255)" fill-opacity="0" stroke="none" stroke-width="1"/><g id="eOFNxcCfuS13" transform="matrix(1 0 0 1 -426.723 -219.496)"><path id="eOFNxcCfuS14" d="" fill="rgb(223,243,251)" stroke="none" stroke-width="1"/></g><g id="eOFNxcCfuS15" transform="matrix(4.55814 0 0 4.55814 -802.672 -4173.91)"><g id="eOFNxcCfuS16"><g id="eOFNxcCfuS17"><g id="eOFNxcCfuS18"><path id="eOFNxcCfuS19" d="M236,1028C233.9,1028,231.8,1027.2,230.2,1025.6L185.5,980.9C182.3,977.7,182.3,972.5,185.4,969.3L185.5,969.2L230.2,924.5C231.8,922.9,233.8,922.1,236,922.1C236,922.1,236,922.1,236,922.1C238.1,922.1,240.2,922.9,241.7,924.4L241.9,924.6L286.6,969.3C289.8,972.5,289.8,977.7,286.7,980.9L286.6,981L241.9,1025.7C240.2,1027.2,238.1,1028,236,1028ZM189.8,973.3L189.8,973.3C188.8,974.3,188.8,975.7,189.7,976.6L234.4,1021.3C235.3,1022.2,236.7,1022.2,237.6,1021.3L282.3,976.6C283.2,975.7,283.2,974.3,282.3,973.4L237.5,928.6C237.1,928.2,236.5,928,235.9,928C235.9,928,235.9,928,235.9,928C235.3,928,234.7,928.2,234.3,928.7L189.8,973.3Z" transform="matrix(1 0 0 1 0.264048 0)" fill="rgb(251,120,32)" stroke="none" stroke-width="1"/></g></g></g></g><path id="eOFNxcCfuS110" d="M654.159851,393.284851L656.43988,393.284851L656.43988,404.54483C656.43988,405.56485,656.326538,406.444824,656.099854,407.184845C655.879883,407.918182,655.559875,408.521515,655.139832,408.994843C654.726501,409.46817,654.233215,409.81485,653.659851,410.034851C653.079834,410.261505,652.43988,410.374847,651.739868,410.374847C650.999878,410.374847,650.306519,410.244843,649.659851,409.984833C649.013184,409.731506,648.473206,409.398163,648.039856,408.984833L649.139832,407.224854C649.459839,407.56485,649.846497,407.844849,650.299866,408.06485C650.746521,408.291504,651.199829,408.404846,651.659851,408.404846C652.433167,408.404846,653.043213,408.1315,653.489868,407.584839C653.936523,407.04483,654.159851,406.111511,654.159851,404.784851L654.159851,393.284851ZM661.889771,401.664825C661.889771,402.671509,662.019714,403.584839,662.279724,404.404846C662.546387,405.231506,662.916382,405.941498,663.389771,406.534851C663.863098,407.128174,664.426392,407.584839,665.079712,407.904846C665.733093,408.224854,666.453064,408.384827,667.239746,408.384827C668.026428,408.384827,668.706421,408.291504,669.279724,408.104828C669.853088,407.918182,670.413086,407.664825,670.959717,407.344849L671.659729,409.244843C671.066406,409.56485,670.389771,409.831512,669.629761,410.04483C668.869751,410.264832,667.986389,410.374847,666.979736,410.374847C665.873047,410.374847,664.866394,410.174835,663.959717,409.774841C663.059753,409.374847,662.279724,408.801514,661.619751,408.05484C660.966431,407.31485,660.459717,406.411499,660.099731,405.344849C659.739746,404.278168,659.559753,403.081512,659.559753,401.754852C659.559753,400.474854,659.739746,399.298157,660.099731,398.224854C660.459717,397.158173,660.976379,396.234833,661.649719,395.454834C662.323059,394.681519,663.133057,394.078186,664.079712,393.644836C665.033081,393.211517,666.093079,392.994843,667.259766,392.994843C668.079712,392.994843,668.813049,393.071503,669.459717,393.224854C670.106384,393.378174,670.719727,393.591492,671.299744,393.864838L670.599731,395.784851C670.106384,395.54483,669.599731,395.351501,669.079712,395.204834C668.559753,395.058167,667.946411,394.984833,667.239746,394.984833C666.473083,394.984833,665.759766,395.134827,665.099731,395.434845C664.446411,395.72818,663.879761,396.164825,663.399719,396.744843C662.919739,397.318176,662.546387,398.018158,662.279724,398.844849C662.019714,399.664825,661.889771,400.604828,661.889771,401.664825Z" transform="matrix(8.43664 0 0 8.43664 -5295.27 -3117.98)" fill="rgb(251,120,32)" stroke="none" stroke-width="1"/></svg>